<?xml version="1.0" encoding="utf-8"?>
<!-- Generator: Adobe Illustrator 28.2.0, SVG Export Plug-In . SVG Version: 6.00 Build 0)  -->
<svg version="1.1" id="Capa_1" xmlns="http://www.w3.org/2000/svg" xmlns:xlink="http://www.w3.org/1999/xlink" x="0px" y="0px"
	 viewBox="0 0 64.54 64.54" style="enable-background:new 0 0 64.54 64.54;" xml:space="preserve">
<style type="text/css">
	.st0{fill:#E6332A;}
	.st1{display:none;}
	.st2{fill:#033789;}
	.st3{fill:#FFFFFF;}
	.st4{fill:#0D6EFD;}
	.st5{fill:#2B2B2B;}
	.st6{fill:#FF0600;}
</style>
<g>
	<path class="st3" d="M34.81,17.15c-8.35,0-15.11,6.77-15.11,15.11s6.77,15.12,15.11,15.12s15.12-6.77,15.12-15.12
		S43.15,17.15,34.81,17.15z M38.75,38.86l-5.26-5.26c-0.01-0.01-0.01-0.01-0.02-0.02l-0.05-0.05l0.01-0.01
		c-0.3-0.33-0.5-0.77-0.5-1.25v-7.54c0-2.07,1.67-3.74,3.74-3.74v10.5l7.37,7.37C42.58,40.32,40.22,40.32,38.75,38.86z"/>
	<path class="st3" d="M48.79,43.42c-3.28,4.11-8.33,6.75-13.99,6.75c-9.89,0-17.91-8.02-17.91-17.91c0-9.89,8.02-17.91,17.91-17.91
		c0.63,0,1.25,0.03,1.87,0.1V6.22c-0.82-0.06-1.63-0.12-2.5-0.12C18.64,6.1,7.6,17.63,7.6,32.27c0,14.64,11.04,26.17,26.57,26.17
		c9.08,0,15.86-3.84,20.77-8.99L48.79,43.42z"/>
</g>
</svg>
