<?xml version="1.0" encoding="utf-8"?>
<!-- Generator: Adobe Illustrator 28.2.0, SVG Export Plug-In . SVG Version: 6.00 Build 0)  -->
<svg version="1.1" id="Capa_1" xmlns="http://www.w3.org/2000/svg" xmlns:xlink="http://www.w3.org/1999/xlink" x="0px" y="0px"
	 viewBox="0 0 230.09 64.54" style="enable-background:new 0 0 230.09 64.54;" xml:space="preserve">
<style type="text/css">
	.st0{fill:#E6332A;}
	.st1{display:none;}
	.st2{fill:#033789;}
	.st3{fill:#FFFFFF;}
	.st4{fill:#0D6EFD;}
	.st5{fill:#2B2B2B;}
	.st6{fill:#FF0600;}
</style>
<g>
	<path class="st4" d="M58.05,22.19c7.6,0,13,5.67,13,12.88c0,7.2-5.39,12.88-13,12.88c-7.65,0-13-5.67-13-12.88
		C45.05,27.86,50.4,22.19,58.05,22.19z M58.05,42.35c4.27,0,7-3.22,7-7.28c0-4.06-2.74-7.28-7-7.28c-4.31,0-7,3.22-7,7.28
		C51.04,39.13,53.74,42.35,58.05,42.35z"/>
	<path class="st4" d="M110.94,23.8h5.91v19.07h10.5v5.07h-16.42V23.8z"/>
	<path class="st4" d="M145.22,22.19c7.61,0,13,5.67,13,12.88c0,7.2-5.39,12.88-13,12.88c-7.64,0-13-5.67-13-12.88
		C132.22,27.86,137.58,22.19,145.22,22.19z M145.22,42.35c4.27,0,7-3.22,7-7.28c0-4.06-2.74-7.28-7-7.28c-4.31,0-7,3.22-7,7.28
		C138.22,39.13,140.92,42.35,145.22,42.35z"/>
	<path class="st4" d="M176.16,22.19c4.59,0,7.76,1.73,10.34,4.43l-4.06,3.86c-1.69-1.65-3.86-2.7-6.28-2.7
		c-4.31,0-7.08,3.22-7.08,7.28c0,4.06,2.78,7.28,7.08,7.28c2.41,0,4.59-1.05,6.28-2.7l3.94,3.86c-2.41,2.53-5.75,4.43-10.22,4.43
		c-7.65,0-13.08-5.67-13.08-12.88C163.08,27.86,168.52,22.19,176.16,22.19z"/>
	<path class="st4" d="M191.37,23.8h5.92v10.78h0.08l6.96-10.78h6.52l-8.29,11.47l8.73,12.68h-6.52l-7.4-11.71h-0.08v11.71h-5.92
		V23.8z"/>
	<path class="st4" d="M93.24,21.64c-5.32,0-9.63,4.31-9.63,9.63s4.31,9.63,9.63,9.63s9.63-4.31,9.63-9.63S98.56,21.64,93.24,21.64z
		 M95.76,35.47l-3.35-3.35c0,0-0.01-0.01-0.01-0.01l-0.03-0.03l0.01-0.01c-0.19-0.21-0.32-0.49-0.32-0.8v-4.8
		c0-1.32,1.07-2.38,2.38-2.38v6.69l4.7,4.7C98.2,36.4,96.69,36.4,95.76,35.47z"/>
	<path class="st4" d="M102.16,38.37c-2.09,2.62-5.3,4.3-8.92,4.3c-6.3,0-11.41-5.11-11.41-11.41c0-6.3,5.11-11.41,11.41-11.41
		c0.4,0,0.8,0.02,1.19,0.06v-5.25c-0.52-0.04-1.04-0.08-1.59-0.08c-9.9,0-16.93,7.35-16.93,16.67c0,9.33,7.03,16.67,16.93,16.67
		c5.78,0,10.11-2.45,13.23-5.73L102.16,38.37z"/>
	<path class="st4" d="M40.19,15.81h-0.07v21.72c0,0.27-0.02,0.52-0.04,0.78c0.06-0.49,0.11-0.99,0.11-1.49c0-0.1-0.01-0.2-0.01-0.3
		h0.01V15.81z"/>
	<path class="st4" d="M34.17,15.81V37c0,2.69-2.1,4.87-4.69,4.87c-2.42,0-4.39-1.91-4.64-4.34c-0.01-0.05-0.02-0.09-0.03-0.14
		l-6.01,0.21c0.38,5.78,5.01,10.35,10.68,10.35c5.43,0,9.9-4.19,10.61-9.62c0.02-0.26,0.04-0.52,0.04-0.78V15.81H34.17z"/>
</g>
</svg>
